<svg xmlns="http://www.w3.org/2000/svg" viewBox="0 0 24.26 24.33"><defs><style>.cls-1{fill:#898989;}</style></defs><g id="Layer_2" data-name="Layer 2"><g id="Layer_1-2" data-name="Layer 1"><path class="cls-1" d="M8.22,1.5a1,1,0,0,1,1,1V8.22a1,1,0,0,1-1,1H2.54a1,1,0,0,1-1-1V2.54a1,1,0,0,1,1-1H8.22m0-1.5H2.54A2.54,2.54,0,0,0,0,2.54V8.22a2.54,2.54,0,0,0,2.54,2.54H8.22a2.54,2.54,0,0,0,2.54-2.54V2.54A2.54,2.54,0,0,0,8.22,0Z"/><path class="cls-1" d="M8.22,15.07a1,1,0,0,1,1,1v5.67a1,1,0,0,1-1,1H2.54a1,1,0,0,1-1-1V16.11a1,1,0,0,1,1-1H8.22m0-1.5H2.54A2.54,2.54,0,0,0,0,16.11v5.67a2.55,2.55,0,0,0,2.54,2.55H8.22a2.55,2.55,0,0,0,2.54-2.55V16.11a2.54,2.54,0,0,0-2.54-2.54Z"/><path class="cls-1" d="M21.72,15.07a1,1,0,0,1,1,1v5.67a1,1,0,0,1-1,1H16a1,1,0,0,1-1-1V16.11a1,1,0,0,1,1-1h5.68m0-1.5H16a2.54,2.54,0,0,0-2.54,2.54v5.67A2.55,2.55,0,0,0,16,24.33h5.68a2.55,2.55,0,0,0,2.54-2.55V16.11a2.54,2.54,0,0,0-2.54-2.54Z"/><rect class="cls-1" x="13.5" width="10.76" height="10.76" rx="2.54"/></g></g></svg>