<svg xmlns="http://www.w3.org/2000/svg" viewBox="0 0 25.22 25.22"><defs><style>.cls-1{fill:#898989;}</style></defs><g id="Layer_2" data-name="Layer 2"><g id="Layer_1-2" data-name="Layer 1"><path class="cls-1" d="M25.14,11.21h0A1.5,1.5,0,0,0,23.64,10a1.88,1.88,0,0,1-1.29-3.28,1.41,1.41,0,0,0,.15-1.9,12.33,12.33,0,0,0-2-2,1.4,1.4,0,0,0-1.91.16,2,2,0,0,1-2.13.48,1.91,1.91,0,0,1-1.15-1.85A1.41,1.41,0,0,0,14.08.08a12.26,12.26,0,0,0-2.84,0A1.42,1.42,0,0,0,10,1.52,1.9,1.9,0,0,1,8.83,3.34a2,2,0,0,1-2.12-.48A1.39,1.39,0,0,0,4.82,2.7a12.13,12.13,0,0,0-2,2,1.4,1.4,0,0,0,.15,1.92,1.91,1.91,0,0,1,.48,2.13,2,2,0,0,1-1.9,1.15A1.38,1.38,0,0,0,.08,11.14,12.52,12.52,0,0,0,.08,14a1.5,1.5,0,0,0,1.51,1.24h0a1.86,1.86,0,0,1,1.74,1.17,1.89,1.89,0,0,1-.48,2.11,1.39,1.39,0,0,0-.15,1.89,11.89,11.89,0,0,0,2,2,1.4,1.4,0,0,0,1.92-.15,2,2,0,0,1,2.12-.48,1.91,1.91,0,0,1,1.16,1.85,1.4,1.4,0,0,0,1.23,1.48,14.13,14.13,0,0,0,1.46.08A12.77,12.77,0,0,0,14,25.14a1.4,1.4,0,0,0,1.24-1.44,1.91,1.91,0,0,1,1.17-1.82,2,2,0,0,1,2.12.49,1.38,1.38,0,0,0,1.89.15,12.52,12.52,0,0,0,2-2,1.4,1.4,0,0,0-.15-1.92,1.9,1.9,0,0,1-.48-2.13,1.92,1.92,0,0,1,1.74-1.15h.12a1.41,1.41,0,0,0,1.47-1.23A12.52,12.52,0,0,0,25.14,11.21Zm-1.46,2.62h-.12a3.36,3.36,0,0,0-2.32,5.81,11.19,11.19,0,0,1-1.69,1.68,3.5,3.5,0,0,0-3.72-.81,3.39,3.39,0,0,0-2.08,3.17,11.63,11.63,0,0,1-2.36,0,3.38,3.38,0,0,0-2.07-3.23,3.46,3.46,0,0,0-3.74.8,11.46,11.46,0,0,1-1.66-1.68,3.39,3.39,0,0,0,.8-3.71,3.36,3.36,0,0,0-3.13-2.09H1.54a11.83,11.83,0,0,1,0-2.38A3.46,3.46,0,0,0,4.77,9.33,3.37,3.37,0,0,0,4,5.58,12.27,12.27,0,0,1,5.67,3.9a3.5,3.5,0,0,0,3.72.81,3.39,3.39,0,0,0,2.08-3.17,11.63,11.63,0,0,1,2.36,0,3.37,3.37,0,0,0,2.06,3.23A3.47,3.47,0,0,0,19.64,4,12,12,0,0,1,21.3,5.65a3.36,3.36,0,0,0,2.34,5.8h0A11.73,11.73,0,0,1,23.68,13.83Z"/><path class="cls-1" d="M12.61,5.6a7,7,0,1,0,7,7A7,7,0,0,0,12.61,5.6Zm0,12.55a5.54,5.54,0,1,1,5.54-5.54A5.55,5.55,0,0,1,12.61,18.15Z"/><path class="cls-1" d="M10.62,10.6a.75.75,0,0,0-1,.08l-.87,1a1.44,1.44,0,0,0,0,1.87l.87,1a.76.76,0,0,0,.57.26.74.74,0,0,0,.56-1.22l-.85-1,.85-1A.74.74,0,0,0,10.62,10.6Z"/><path class="cls-1" d="M13.35,10.46a.75.75,0,0,0-.94.46l-1,2.93a.74.74,0,0,0,.46.94,1,1,0,0,0,.24,0,.75.75,0,0,0,.7-.5l1-2.93A.74.74,0,0,0,13.35,10.46Z"/><path class="cls-1" d="M15.64,10.68a.74.74,0,0,0-1-.08.73.73,0,0,0-.08,1l.84,1-.84,1a.74.74,0,0,0,.56,1.22.74.74,0,0,0,.56-.26l.87-1a1.44,1.44,0,0,0,0-1.87Z"/></g></g></svg>